<?xml version="1.0" encoding="UTF-8"?>
<svg version="1.1" xmlns="http://www.w3.org/2000/svg" width="512" height="512">
<path d="M0 0 C1.07742972 -0.00382555 2.15485943 -0.00765109 3.26493853 -0.01159257 C6.85194379 -0.02185803 10.43878704 -0.01794268 14.02580261 -0.01396179 C16.60713854 -0.01831185 19.18847318 -0.02349598 21.76980591 -0.02944946 C28.0400049 -0.04216069 34.31016099 -0.04399461 40.5803707 -0.0416492 C45.68061663 -0.03986174 50.7808496 -0.04162483 55.88109398 -0.04587364 C56.97247458 -0.04676643 56.97247458 -0.04676643 58.08590328 -0.04767724 C59.56430144 -0.04888908 61.04269959 -0.05010321 62.52109774 -0.05131962 C76.36765499 -0.06218154 90.21418784 -0.06003916 104.06074645 -0.05393478 C116.70635141 -0.04876773 129.35187928 -0.06001786 141.99746899 -0.07903299 C155.00542837 -0.09844192 168.01335134 -0.10666199 181.02132529 -0.10290974 C188.3148796 -0.10100221 195.60836834 -0.10344133 202.90191078 -0.11762428 C209.76300119 -0.13083208 216.62393532 -0.12823668 223.48502541 -0.11521339 C225.99677584 -0.11285302 228.50853719 -0.11556286 231.02027512 -0.12383652 C250.19355285 -0.18241757 265.67676855 0.02529612 280.67497253 13.44819641 C291.0281884 24.49826335 292.16270942 38.02975826 292.1366272 52.35392761 C292.14108334 53.8963831 292.14639862 55.4388363 292.15249592 56.98128617 C292.1666406 61.2081116 292.16833989 65.43486337 292.16789901 69.66170907 C292.16955029 74.2248716 292.18262239 78.78800406 292.1940918 83.35115051 C292.21691438 93.32210419 292.22485905 103.29303655 292.22991824 113.26401281 C292.23317763 119.49147832 292.23970146 125.71893767 292.24691963 131.94639969 C292.26647986 149.19435107 292.28288816 166.44229674 292.28579617 183.69025993 C292.28598374 184.79334995 292.28617131 185.89643997 292.28636456 187.03295697 C292.2867308 189.26908501 292.2870945 191.50521305 292.28745567 193.7413411 C292.28763848 194.85132698 292.28782129 195.96131287 292.28800964 197.10493469 C292.28828047 198.7719489 292.28828047 198.7719489 292.28855676 200.47264017 C292.2920998 218.48763877 292.31913292 236.50251794 292.35650753 254.51747511 C292.39458739 273.02060612 292.41395361 291.52367785 292.41425568 310.02684891 C292.41484022 320.41283997 292.42333076 330.79868844 292.45225334 341.18464279 C292.47676257 350.02624852 292.48405298 358.86765962 292.46900582 367.70929013 C292.46183578 372.21897043 292.46269853 376.72826636 292.48541641 381.23790359 C292.50603141 385.36971403 292.50338292 389.5008452 292.48254157 393.63264848 C292.47905153 395.1238342 292.48393615 396.61506917 292.49824601 398.10619031 C292.58815723 408.12422454 291.66483374 416.19874811 284.54997253 423.69819641 C278.82398925 427.02725646 273.58608706 429.07216713 266.86247253 428.26069641 C259.17748018 425.76149045 252.22674342 421.87695253 245.23747253 417.88569641 C243.6072113 416.96421814 243.6072113 416.96421814 241.9440155 416.02412415 C233.59245409 411.28827342 225.30398425 406.44648268 217.02604675 401.58345032 C209.53272449 397.19577651 201.96491832 392.95600792 194.36247253 388.76069641 C184.76470383 383.46429172 175.26054597 378.03388985 165.811203 372.47749329 C157.41018653 367.54904613 148.92655783 362.77699486 140.40885925 358.05342102 C139.43706726 357.5133844 138.46527527 356.97334778 137.46403503 356.41694641 C136.05879578 355.64157532 136.05879578 355.64157532 134.62516785 354.85054016 C132.74912514 353.77093694 130.90445528 352.63530059 129.09196472 351.45210266 C128.21959167 350.8836261 127.34721863 350.31514954 126.44841003 349.72944641 C125.68319031 349.20802063 124.91797058 348.68659485 124.12956238 348.14936829 C121.86211871 347.00112233 121.86211871 347.00112233 119.42277527 347.9198761 C118.57787537 348.3623468 117.73297546 348.8048175 116.86247253 349.26069641 C115.98292908 349.71670227 115.10338562 350.17270813 114.19718933 350.64253235 C113.24497498 351.17137024 112.29276062 351.70020813 111.31169128 352.24507141 C109.69399841 353.14237976 109.69399841 353.14237976 108.04362488 354.05781555 C106.87894393 354.70854293 105.71439657 355.35950944 104.54997253 356.01069641 C103.95355957 356.3429422 103.35714661 356.67518799 102.74266052 357.01750183 C93.3543961 362.24817768 84.0503476 367.61262699 74.78507996 373.05854797 C67.69413755 377.21806872 60.54600988 381.26346835 53.36247253 385.26069641 C45.14043947 389.8363644 36.97681908 394.49666955 28.86247253 399.26069641 C16.62799054 406.43932343 4.27198757 413.38976302 -8.13752747 420.26069641 C-9.2710968 420.89056458 -9.2710968 420.89056458 -10.42756653 421.53315735 C-25.49870008 429.89151088 -25.49870008 429.89151088 -34.15705872 427.76460266 C-40.36105652 425.66497052 -45.25720484 422.52773409 -48.27765656 416.53617668 C-51.08022773 409.92170156 -50.69117716 403.02434591 -50.64546204 395.97801208 C-50.6500756 394.42715332 -50.65643157 392.87629894 -50.66437101 391.32545364 C-50.6810254 387.07991286 -50.67283575 382.83473305 -50.66042614 378.5891912 C-50.65136184 374.00420455 -50.66535232 369.41927921 -50.67634583 364.83430481 C-50.69412175 355.85813601 -50.69029494 346.88210109 -50.67869526 337.90592708 C-50.66965645 330.60883702 -50.66843889 323.31178445 -50.67279053 316.0146904 C-50.67340346 314.97554993 -50.67401639 313.93640947 -50.6746479 312.8657799 C-50.67592682 310.75466474 -50.67722368 308.64354959 -50.67853826 306.53243445 C-50.68994164 286.74097295 -50.67683473 266.94958558 -50.6553368 247.15813623 C-50.63747132 230.18561264 -50.64056587 213.2131985 -50.65901184 196.24067688 C-50.68043191 176.52244225 -50.68883747 156.80427262 -50.67656279 137.08602798 C-50.67528862 134.98212998 -50.67403114 132.87823197 -50.67279053 130.77433395 C-50.67217343 129.73923122 -50.67155632 128.70412848 -50.67092052 127.63765899 C-50.66747064 120.35252565 -50.67328828 113.06743361 -50.68270874 105.78230667 C-50.69394295 96.89940239 -50.69085897 88.01663944 -50.66958576 79.13375129 C-50.6590937 74.60375085 -50.65492193 70.07398582 -50.66818237 65.54398727 C-50.68015074 61.39249102 -50.67347098 57.2414471 -50.65227216 53.08999155 C-50.64782478 51.59277107 -50.65003022 50.09551194 -50.65977532 48.59831657 C-50.74861793 33.80774822 -46.96622612 22.64093433 -37.01252747 11.57319641 C-26.74673803 1.82862807 -13.540682 -0.05173259 0 0 Z M62.04997253 114.88569641 C58.66134087 119.46150175 56.69409941 124.98268223 56.98747253 130.69429016 C58.52584189 138.83940649 63.42119809 144.11866074 69.15934753 149.75288391 C69.75298096 150.34368744 70.34661438 150.93449097 70.95823669 151.54319763 C72.8383024 153.41215023 74.72523214 155.27399182 76.61247253 157.13569641 C77.89548622 158.40866884 79.17804308 159.68210186 80.46012878 160.95600891 C83.58898553 164.06292308 86.72401387 167.16348316 89.86247253 170.26069641 C88.42197228 175.13004851 85.4394235 178.02706523 81.86637878 181.44429016 C80.98235634 182.31127281 80.98235634 182.31127281 80.08047485 183.19577026 C77.56965395 185.65774987 75.04143904 188.10158288 72.51457214 190.54707336 C70.66729586 192.33989859 68.82922715 194.14180945 66.99137878 195.94429016 C66.13812767 196.76019875 66.13812767 196.76019875 65.26763916 197.59259033 C61.19366571 201.59094407 58.2796987 205.40777158 57.42887878 211.22554016 C57.41881474 218.88427664 58.08271977 223.22833641 63.44059753 228.94429016 C67.79996913 233.03856484 71.90051879 235.14606484 78.02262878 235.32319641 C87.19593631 234.81968725 93.39753705 229.19202705 99.54997253 222.86616516 C100.43193298 221.97783745 100.43193298 221.97783745 101.33171082 221.07156372 C103.18255185 219.20411582 105.02260236 217.3264475 106.86247253 215.44819641 C108.12609239 214.16950646 109.39040945 212.8915051 110.65544128 211.61421204 C113.73255824 208.50426502 116.80005309 205.38511459 119.86247253 202.26069641 C124.07505101 203.88383385 126.77098939 207.02050298 129.80778503 210.22163391 C130.97904803 211.4279576 132.15094378 212.63366718 133.32341003 213.83882141 C135.15338214 215.73041203 136.97832594 217.62607962 138.79216003 219.53315735 C149.23579244 230.98447737 149.23579244 230.98447737 163.61027527 235.35713196 C169.74646937 235.12064092 173.95018181 233.28655836 178.26481628 228.80366516 C182.42682814 224.03846318 184.15082616 220.71204536 184.17497253 214.38569641 C184.20010925 212.8736261 184.20010925 212.8736261 184.22575378 211.33100891 C183.38673231 204.23992419 179.11755748 200.15169543 174.19059753 195.47163391 C172.87395292 194.1880242 171.55755378 192.90416266 170.24137878 191.62007141 C168.16928319 189.61656864 166.09330534 187.61732692 164.01237488 185.6230011 C161.99860029 183.68738995 160.0002513 181.73686795 158.00309753 179.78413391 C157.37300781 179.18926178 156.74291809 178.59438965 156.09373474 177.98149109 C154.3634491 176.2816925 154.3634491 176.2816925 151.86247253 173.26069641 C152.2797891 168.58028084 155.75819142 166.06159606 158.97966003 162.99116516 C160.23888057 161.76015374 161.49799169 160.52903039 162.75700378 159.29780579 C164.74426779 157.37256717 166.73477143 155.45079648 168.72819519 153.53193665 C170.6539962 151.67284764 172.56716499 149.80142554 174.47966003 147.92866516 C175.07350494 147.36487656 175.66734985 146.80108795 176.27919006 146.22021484 C180.73594702 141.84333487 183.32179234 137.76294019 184.29606628 131.45210266 C184.30528217 125.24980845 183.7903977 120.24404745 179.86247253 115.26069641 C174.02380411 109.88019312 169.34154685 107.94229282 161.42497253 108.04585266 C154.32349068 108.64125129 148.92731483 112.77173756 144.36637878 117.96382141 C143.36174367 119.16416466 142.36044741 120.36731011 141.36247253 121.57319641 C139.1190193 124.0970813 136.45351817 126.10149172 133.86247253 128.26069641 C132.86262274 129.38852698 131.88410154 130.53553871 130.92497253 131.69819641 C127.91942428 135.33355451 124.52441618 138.3029727 120.86247253 141.26069641 C116.03501726 137.21186295 111.89357882 133.1186963 107.86247253 128.26069641 C106.75511074 127.28203526 105.62877745 126.32455256 104.48747253 125.38569641 C101.78791598 123.15562796 99.50831135 120.80146372 97.23747253 118.13569641 C92.40290268 112.49357034 88.15702183 108.84799096 80.53825378 108.00288391 C72.75255255 107.64519473 67.72432404 109.58963501 62.04997253 114.88569641 Z " fill="#000000" transform="translate(135.1375274658203,41.73930358886719)"/>
</svg>